<?xml version="1.0" encoding="UTF-8" standalone="no"?>
<!--part of the matt icon theme by sixsixfive released under CC0 (https://creativecommons.org/publicdomain/zero/1.0/) on openclipart-->
<svg xmlns="http://www.w3.org/2000/svg" xmlnsxlink="http://www.w3.org/1999/xlink" viewbox="0 0 128 128">
 <defs id="0">
  <linearGradient id="2">
   <stop id="E" stop-color="#8bb300"/>
   <stop id="F" offset="1" stop-color="#f0ff80"/>
  </linearGradient>
  <linearGradient id="3">
   <stop id="G" stop-color="#eee"/>
   <stop id="H" offset="1" stop-color="#eee" stop-opacity="0"/>
  </linearGradient>
  <linearGradient id="4">
   <stop id="I"/>
   <stop id="J" offset="1" stop-opacity="0"/>
  </linearGradient>
  <radialGradient cx="60.05" cy="51.39" r="15.03" id="5" xlinkhref="#6" gradientunits="userSpaceOnUse" gradientransform="matrix(-1.404511,1.1888571,-0.99999995,-1.1813958,199.73811,11.750541)"/>
  <linearGradient id="6">
   <stop id="K" stop-color="#eee"/>
   <stop id="L" offset="1" stop-color="#dcdcdc"/>
  </linearGradient>
  <radialGradient cx="63.832" cy="123.09" r="21.1" id="7" xlinkhref="#4" gradientunits="userSpaceOnUse" gradienttransform="matrix(1,0,0,0.1069182,0,109.92933)"/>
  <radialGradient cx="128.63" cy="-3.789" r="56.866" id="8" xlinkhref="#3" gradientunits="userSpaceOnUse" gradienttransform="matrix(1.1326987,1.2490863,-1.5436574,1.5436574,-15.221876,-163.48384)"/>
  <linearGradient x1="64.25" y1="161.28" x2="162.11" y2="63.42" id="9" xlinkhref="#2" gradientunits="userSpaceOnUse"/>
 </defs>
 <g id="1">
  <path d="m 84.931763,123.08988 a 21.100235,2.256 0 1 1 -42.20047,0 21.100235,2.256 0 1 1 42.20047,0 z" transform="matrix(1,0,0,1.2941176,0.296875,-36.695623)" id="A" opacity="0.391" fill="url(#7)"/>
  <path d="M 56.125,1.5625 C 52.191255,1.5625016 48.999999,4.7387194 49,8.625 l 0,38.96875 -39.46875,0 C 5.5988874,47.593748 2.3750003,50.737287 2.375,54.625 l 0,14.9375 c -9e-7,3.888122 3.2220976,7.0625 7.15625,7.0625 l 39.46875,0 0,38.9375 c 2e-6,3.88627 3.191255,7.0625 7.125,7.0625 l 15.1875,0 c 3.933334,1e-5 7.093743,-3.17806 7.09375,-7.0625 l 0,-38.9375 39.53125,0 c 3.93333,10e-7 7.09374,-3.178057 7.09375,-7.0625 l 0,-14.9375 c -1e-5,-3.884035 -3.16221,-7.03125 -7.09375,-7.03125 l -39.53125,0 0,-38.96875 c -6e-6,-3.8844433 -3.160417,-7.0625043 -7.09375,-7.0625 l -15.1875,0 z" transform="translate(0.296875,0.170811)" id="B" fill="#638000"/>
  <path d="m 103.0625,7.28125 c -1.19596,0 -2.38965,0.4833922 -3.3125,1.40625 L 66.6875,41.75 l -0.5,-0.5 -0.5,-0.5 c 0.06123,-0.06058 -0.09394,0.09031 -0.03125,0.03125 0.06269,-0.05906 -0.09536,0.08877 -0.03125,0.03125 0.06411,-0.05752 -0.09674,0.08719 -0.03125,0.03125 0.06549,-0.05594 -0.129333,0.08558 -0.0625,0.03125 0.06683,-0.05433 -0.09939,0.08393 -0.03125,0.03125 0.06814,-0.05268 -0.100651,0.08226 -0.03125,0.03125 0.0694,-0.05101 -0.133124,0.08055 -0.0625,0.03125 0.07062,-0.0493 -0.103055,0.07881 -0.03125,0.03125 0.0718,-0.04756 -0.104193,0.07705 -0.03125,0.03125 0.07294,-0.0458 -0.136537,0.07526 -0.0625,0.03125 0.07404,-0.04401 -0.106338,0.07344 -0.03125,0.03125 0.07509,-0.04219 -0.138594,0.0716 -0.0625,0.03125 0.07609,-0.04035 -0.108305,0.03848 -0.03125,0 0.07706,-0.03848 -0.10922,0.06784 -0.03125,0.03125 0.07797,-0.03659 -0.141339,0.06593 -0.0625,0.03125 0.07884,-0.03468 -0.11091,0.03275 -0.03125,0 0.07966,-0.03275 -0.142935,0.06205 -0.0625,0.03125 0.08043,-0.0308 -0.143662,0.06008 -0.0625,0.03125 0.08116,-0.02883 -0.11309,0.02684 -0.03125,0 0.08184,-0.02684 -0.14497,0.05609 -0.0625,0.03125 0.08247,-0.02484 -0.114301,0.02282 -0.03125,0 0.08305,-0.02282 -0.146082,0.02079 -0.0625,0 0.08358,-0.02079 -0.115314,0.05 -0.03125,0.03125 0.08406,-0.01875 -0.146996,0.01669 -0.0625,0 0.0845,-0.01669 -0.147378,0.01463 -0.0625,0 0.08488,-0.01463 -0.116459,0.0438 -0.03125,0.03125 0.08521,-0.01255 -0.14799,0.01047 -0.0625,0 0.08549,-0.01047 -0.11697,0.0084 -0.03125,0 0.08572,-0.0084 -0.148399,0.0063 -0.0625,0 0.0859,-0.0063 -0.148526,0.0042 -0.0625,0 0.08603,-0.0042 -0.117353,0.0021 -0.03125,0 0.0861,-0.0021 -0.148629,0 -0.0625,0 0.08613,0 -0.148603,-0.0021 -0.0625,0 0.0861,0.0021 -0.117276,-0.0042 -0.03125,0 0.08603,0.0042 -0.148399,-0.0063 -0.0625,0 0.0859,0.0063 -0.14822,-0.0084 -0.0625,0 0.08572,0.0084 -0.11674,-0.01047 -0.03125,0 0.08549,0.01047 -0.147709,-0.01255 -0.0625,0 0.08521,0.01255 -0.116128,-0.04588 -0.03125,-0.03125 0.08488,0.01463 -0.146996,-0.01669 -0.0625,0 0.0845,0.01669 -0.146564,-0.01875 -0.0625,0 0.08406,0.01875 -0.114832,-0.05204 -0.03125,-0.03125 0.08358,0.02079 -0.145551,-0.02282 -0.0625,0 0.08305,0.02282 -0.11372,-0.02484 -0.03125,0 0.08247,0.02484 -0.14434,-0.05809 -0.0625,-0.03125 0.08184,0.02684 -0.112412,-0.02883 -0.03125,0 0.08116,0.02883 -0.142935,-0.06205 -0.0625,-0.03125 0.08044,0.0308 -0.14216,-0.064 -0.0625,-0.03125 0.07966,0.03275 -0.110089,-0.03468 -0.03125,0 0.07884,0.03468 -0.14047,-0.06784 -0.0625,-0.03125 0.07797,0.03659 -0.108305,-0.06973 -0.03125,-0.03125 0.07706,0.03848 -0.107344,-0.04035 -0.03125,0 0.07609,0.04035 -0.137588,-0.07344 -0.0625,-0.03125 0.07509,0.04219 -0.105287,-0.07526 -0.03125,-0.03125 0.07404,0.04401 -0.135443,-0.07705 -0.0625,-0.03125 0.07294,0.0458 -0.103055,-0.07881 -0.03125,-0.03125 0.0718,0.04756 -0.101874,-0.08055 -0.03125,-0.03125 0.07062,0.0493 -0.131901,-0.08226 -0.0625,-0.03125 0.0694,0.05101 -0.09939,-0.08393 -0.03125,-0.03125 0.06814,0.05268 -0.09808,-0.08558 -0.03125,-0.03125 0.06683,0.05433 -0.127989,-0.08719 -0.0625,-0.03125 0.06549,0.05594 -0.09536,-0.08877 -0.03125,-0.03125 0.06411,0.05752 -0.09394,-0.09031 -0.03125,-0.03125 C 62.84394,40.84031 62.68877,40.68942 62.75,40.75 l -0.5,0.5 -0.5,0.5 L 28.6875,8.6875 c -0.939738,-0.939739 -2.089274,-1.375 -3.28125,-1.375 -1.187524,0 -2.392205,0.4547047 -3.3125,1.375 L 9.5,21.28125 c -1.8527537,1.852753 -1.8527549,4.740995 0,6.59375 l 33.0625,33.0625 -0.5,0.5 -0.5,0.5 c -0.06058,-0.06123 0.09031,0.09394 0.03125,0.03125 -0.05906,-0.06269 0.08877,0.09536 0.03125,0.03125 -0.05752,-0.06411 0.08719,0.09674 0.03125,0.03125 -0.05594,-0.06549 0.08558,0.129333 0.03125,0.0625 -0.05433,-0.06683 0.08393,0.09939 0.03125,0.03125 -0.05268,-0.06814 0.08226,0.100651 0.03125,0.03125 -0.05101,-0.0694 0.08055,0.133124 0.03125,0.0625 -0.0493,-0.07062 0.07881,0.103055 0.03125,0.03125 -0.04756,-0.0718 0.07705,0.104193 0.03125,0.03125 -0.0458,-0.07294 0.07526,0.136537 0.03125,0.0625 -0.04401,-0.07404 0.07344,0.106338 0.03125,0.03125 -0.04219,-0.07509 0.0716,0.138594 0.03125,0.0625 -0.04035,-0.07609 0.03848,0.108305 0,0.03125 -0.03848,-0.07706 0.06784,0.10922 0.03125,0.03125 -0.03659,-0.07797 0.06593,0.141339 0.03125,0.0625 -0.03468,-0.07884 0.03275,0.11091 0,0.03125 -0.03275,-0.07966 0.06205,0.142935 0.03125,0.0625 -0.0308,-0.08044 0.06008,0.143662 0.03125,0.0625 -0.02883,-0.08116 0.02684,0.11309 0,0.03125 -0.02684,-0.08184 0.05609,0.14497 0.03125,0.0625 -0.02484,-0.08247 0.02282,0.114301 0,0.03125 -0.02282,-0.08305 0.02079,0.146082 0,0.0625 -0.02079,-0.08358 0.05,0.115314 0.03125,0.03125 -0.01875,-0.08406 0.01669,0.146996 0,0.0625 -0.01669,-0.0845 0.01463,0.147378 0,0.0625 -0.01463,-0.08488 0.0438,0.116459 0.03125,0.03125 -0.01255,-0.08521 0.01047,0.14799 0,0.0625 -0.01047,-0.08549 0.0084,0.11697 0,0.03125 -0.0084,-0.08572 0.0063,0.148399 0,0.0625 -0.0063,-0.0859 0.0042,0.148526 0,0.0625 -0.0042,-0.08603 0.0021,0.117353 0,0.03125 -0.0021,-0.0861 0,0.148629 0,0.0625 0,-0.08613 -0.0021,0.148603 0,0.0625 0.0021,-0.0861 -0.0042,0.117276 0,0.03125 0.0042,-0.08603 -0.0063,0.148399 0,0.0625 0.0063,-0.0859 -0.0084,0.14822 0,0.0625 0.0084,-0.08572 -0.01047,0.11674 0,0.03125 0.01047,-0.08549 -0.01255,0.147709 0,0.0625 0.01255,-0.08521 -0.04588,0.116128 -0.03125,0.03125 0.01463,-0.08488 -0.01669,0.146996 0,0.0625 0.01669,-0.0845 -0.01875,0.146564 0,0.0625 0.01875,-0.08406 -0.05204,0.114832 -0.03125,0.03125 0.02079,-0.08358 -0.02282,0.145551 0,0.0625 0.02282,-0.08305 -0.02484,0.11372 0,0.03125 0.02484,-0.08247 -0.05809,0.14434 -0.03125,0.0625 0.02684,-0.08184 -0.02883,0.112412 0,0.03125 0.02883,-0.08116 -0.06205,0.142935 -0.03125,0.0625 0.0308,-0.08043 -0.064,0.14216 -0.03125,0.0625 0.03275,-0.07966 -0.03468,0.110089 0,0.03125 0.03468,-0.07884 -0.06784,0.14047 -0.03125,0.0625 0.03659,-0.07797 -0.06973,0.108305 -0.03125,0.03125 0.03848,-0.07706 -0.04035,0.107344 0,0.03125 0.04035,-0.07609 -0.07344,0.137588 -0.03125,0.0625 0.04219,-0.07509 -0.07526,0.105287 -0.03125,0.03125 0.04401,-0.07404 -0.07705,0.135443 -0.03125,0.0625 0.0458,-0.07294 -0.07881,0.103055 -0.03125,0.03125 0.04756,-0.0718 -0.08055,0.101874 -0.03125,0.03125 0.0493,-0.07062 -0.08226,0.131901 -0.03125,0.0625 0.05101,-0.0694 -0.08393,0.09939 -0.03125,0.03125 0.05268,-0.06814 -0.08558,0.09808 -0.03125,0.03125 0.05433,-0.06683 -0.08719,0.127989 -0.03125,0.0625 0.05594,-0.06549 -0.08877,0.09536 -0.03125,0.03125 0.05752,-0.06411 -0.09031,0.09394 -0.03125,0.03125 0.05906,-0.06269 -0.09183,0.09248 -0.03125,0.03125 l 0.5,0.5 0.5,0.5 L 9.5,98.9375 c -1.8527448,1.85275 -1.8527531,4.74099 0,6.59375 l 12.65625,12.65625 c 1.865481,1.86548 4.648426,1.85157 6.53125,-0.0312 L 61.75,85.0938 l 0.5,0.5 0.5,0.5 c -0.06123,0.06058 0.09394,-0.09032 0.03125,-0.03125 -0.06269,0.05907 0.09536,-0.08877 0.03125,-0.03125 -0.06411,0.05752 0.09674,-0.08719 0.03125,-0.03125 -0.06549,0.05594 0.129333,-0.08558 0.0625,-0.03125 -0.06683,0.05433 0.09939,-0.08393 0.03125,-0.03125 -0.06814,0.05268 0.100651,-0.08226 0.03125,-0.03125 -0.0694,0.05101 0.133124,-0.08055 0.0625,-0.03125 -0.07062,0.0493 0.103055,-0.07881 0.03125,-0.03125 -0.0718,0.04756 0.104193,-0.07705 0.03125,-0.03125 -0.07294,0.0458 0.136537,-0.07526 0.0625,-0.03125 -0.07404,0.04401 0.106338,-0.07344 0.03125,-0.03125 -0.07509,0.04219 0.138594,-0.0716 0.0625,-0.03125 -0.07609,0.04035 0.108305,-0.03848 0.03125,0 -0.07706,0.03848 0.10922,-0.06784 0.03125,-0.03125 -0.07797,0.03659 0.141339,-0.06593 0.0625,-0.03125 -0.07884,0.03468 0.11091,-0.03275 0.03125,0 -0.07966,0.03275 0.142935,-0.06205 0.0625,-0.03125 -0.08044,0.0308 0.143662,-0.06008 0.0625,-0.03125 -0.08116,0.02883 0.11309,-0.02684 0.03125,0 -0.08184,0.02684 0.14497,-0.05609 0.0625,-0.03125 -0.08247,0.02484 0.114301,-0.02282 0.03125,0 -0.08305,0.02282 0.146082,-0.02079 0.0625,0 -0.08358,0.02079 0.115314,-0.04999 0.03125,-0.03125 -0.08406,0.01874 0.146996,-0.01669 0.0625,0 -0.0845,0.01669 0.147378,-0.01462 0.0625,0 -0.08488,0.01462 0.116459,-0.0438 0.03125,-0.03125 -0.08521,0.01255 0.14799,-0.01047 0.0625,0 -0.08549,0.01047 0.11697,-0.0084 0.03125,0 -0.08572,0.0084 0.148399,-0.0063 0.0625,0 -0.0859,0.0063 0.148526,-0.0042 0.0625,0 -0.08603,0.0042 0.117353,-0.0021 0.03125,0 -0.0861,0.0021 0.148629,0 0.0625,0 -0.08613,0 0.148603,0.0021 0.0625,0 -0.0861,-0.0021 0.117276,0.0042 0.03125,0 -0.08603,-0.0042 0.148399,0.0063 0.0625,0 -0.0859,-0.0063 0.14822,0.0084 0.0625,0 -0.08572,-0.0084 0.11674,0.01047 0.03125,0 -0.08549,-0.01047 0.147709,0.01255 0.0625,0 -0.08521,-0.01255 0.116128,0.04587 0.03125,0.03125 -0.08488,-0.01462 0.146996,0.01669 0.0625,0 -0.0845,-0.01669 0.146564,0.01874 0.0625,0 -0.08406,-0.01874 0.114832,0.05204 0.03125,0.03125 -0.08358,-0.02079 0.145551,0.02282 0.0625,0 -0.08305,-0.02282 0.11372,0.02484 0.03125,0 -0.08247,-0.02484 0.14434,0.05809 0.0625,0.03125 -0.08184,-0.02684 0.112412,0.02883 0.03125,0 -0.08116,-0.02883 0.142935,0.06205 0.0625,0.03125 -0.08043,-0.0308 0.14216,0.064 0.0625,0.03125 -0.07966,-0.03275 0.110089,0.03468 0.03125,0 -0.07884,-0.03468 0.14047,0.06784 0.0625,0.03125 -0.07797,-0.03659 0.108305,0.06973 0.03125,0.03125 -0.07706,-0.03848 0.107344,0.04035 0.03125,0 -0.07609,-0.04035 0.137588,0.07344 0.0625,0.03125 -0.07509,-0.04219 0.105287,0.07526 0.03125,0.03125 -0.07404,-0.04401 0.135443,0.07705 0.0625,0.03125 -0.07294,-0.0458 0.103055,0.07881 0.03125,0.03125 -0.0718,-0.04756 0.101874,0.08055 0.03125,0.03125 -0.07062,-0.0493 0.131901,0.08226 0.0625,0.03125 -0.0694,-0.05101 0.09939,0.08393 0.03125,0.03125 -0.06814,-0.05268 0.09808,0.08558 0.03125,0.03125 -0.06683,-0.05433 0.127989,0.08719 0.0625,0.03125 -0.06549,-0.05594 0.09536,0.08877 0.03125,0.03125 -0.06411,-0.05752 0.09394,0.09032 0.03125,0.03125 -0.06269,-0.05907 0.09248,0.09183 0.03125,0.03125 l 0.5,-0.5 0.5,-0.5 33.125,33.09375 c 1.85478,1.85478 4.69033,1.84091 6.5625,-0.0312 l 12.59375,-12.625 c 1.89148,-1.89148 1.91931,-4.67444 0.0625,-6.53125 l -33.125,-33.125 0.5,-0.5 0.5,-0.5 c 0.06058,0.06123 -0.09032,-0.09394 -0.03125,-0.03125 0.05907,0.06269 -0.08877,-0.09536 -0.03125,-0.03125 0.05752,0.06411 -0.08719,-0.09674 -0.03125,-0.03125 0.05594,0.06549 -0.08558,-0.129333 -0.03125,-0.0625 0.05433,0.06683 -0.08393,-0.09939 -0.03125,-0.03125 0.05268,0.06814 -0.08226,-0.100651 -0.03125,-0.03125 0.05101,0.0694 -0.08055,-0.133124 -0.03125,-0.0625 0.0493,0.07062 -0.07881,-0.103055 -0.03125,-0.03125 0.04756,0.0718 -0.07705,-0.104193 -0.03125,-0.03125 0.0458,0.07294 -0.07526,-0.136537 -0.03125,-0.0625 0.04401,0.07404 -0.07344,-0.106338 -0.03125,-0.03125 0.04219,0.07509 -0.0716,-0.138594 -0.03125,-0.0625 0.04035,0.07609 -0.03848,-0.108305 0,-0.03125 0.03848,0.07706 -0.06784,-0.10922 -0.03125,-0.03125 0.03659,0.07797 -0.06593,-0.141339 -0.03125,-0.0625 0.03468,0.07884 -0.03275,-0.11091 0,-0.03125 0.03275,0.07966 -0.06205,-0.142935 -0.03125,-0.0625 0.0308,0.08043 -0.06008,-0.143662 -0.03125,-0.0625 0.02883,0.08116 -0.02684,-0.11309 0,-0.03125 0.02684,0.08184 -0.05609,-0.14497 -0.03125,-0.0625 0.02484,0.08247 -0.02282,-0.114301 0,-0.03125 0.02282,0.08305 -0.02079,-0.146082 0,-0.0625 0.02079,0.08358 -0.04999,-0.115314 -0.03125,-0.03125 0.01874,0.08406 -0.01669,-0.146996 0,-0.0625 0.01669,0.0845 -0.01462,-0.147378 0,-0.0625 0.01462,0.08488 -0.0438,-0.116459 -0.03125,-0.03125 0.01255,0.08521 -0.01047,-0.14799 0,-0.0625 0.01047,0.08549 -0.0084,-0.11697 0,-0.03125 0.0084,0.08572 -0.0063,-0.148399 0,-0.0625 0.0063,0.0859 -0.0042,-0.148526 0,-0.0625 0.0042,0.08603 -0.0021,-0.117353 0,-0.03125 0.0021,0.0861 0,-0.148629 0,-0.0625 0,0.08613 0.0021,-0.148603 0,-0.0625 -0.0021,0.0861 0.0042,-0.117276 0,-0.03125 -0.0042,0.08603 0.0063,-0.148399 0,-0.0625 -0.0063,0.0859 0.0084,-0.14822 0,-0.0625 -0.0084,0.08572 0.01047,-0.11674 0,-0.03125 -0.01047,0.08549 0.01255,-0.147709 0,-0.0625 -0.01255,0.08521 0.04587,-0.116128 0.03125,-0.03125 -0.01462,0.08488 0.01669,-0.146996 0,-0.0625 -0.01669,0.0845 0.01874,-0.146564 0,-0.0625 -0.01874,0.08406 0.05204,-0.114832 0.03125,-0.03125 -0.02079,0.08358 0.02282,-0.145551 0,-0.0625 -0.02282,0.08305 0.02484,-0.11372 0,-0.03125 -0.02484,0.08247 0.05809,-0.14434 0.03125,-0.0625 -0.02684,0.08184 0.02883,-0.112412 0,-0.03125 -0.02883,0.08116 0.06205,-0.142935 0.03125,-0.0625 -0.0308,0.08044 0.064,-0.14216 0.03125,-0.0625 -0.03275,0.07966 0.03468,-0.110089 0,-0.03125 -0.03468,0.07884 0.06784,-0.14047 0.03125,-0.0625 -0.03659,0.07797 0.06973,-0.108305 0.03125,-0.03125 -0.03848,0.07706 0.04035,-0.107344 0,-0.03125 -0.04035,0.07609 0.07344,-0.137588 0.03125,-0.0625 -0.04219,0.07509 0.07526,-0.105287 0.03125,-0.03125 -0.04401,0.07404 0.07705,-0.135443 0.03125,-0.0625 -0.0458,0.07294 0.07881,-0.103055 0.03125,-0.03125 -0.04756,0.0718 0.08055,-0.101874 0.03125,-0.03125 -0.0493,0.07062 0.08226,-0.131901 0.03125,-0.0625 -0.05101,0.0694 0.08393,-0.09939 0.03125,-0.03125 -0.05268,0.06814 0.08558,-0.09808 0.03125,-0.03125 -0.05433,0.06683 0.08719,-0.127989 0.03125,-0.0625 -0.05594,0.06549 0.08877,-0.09536 0.03125,-0.03125 -0.05752,0.06411 0.09032,-0.09394 0.03125,-0.03125 -0.05907,0.06269 0.09183,-0.09248 0.03125,-0.03125 l -0.5,-0.5 -0.5,-0.5 33.0625,-33.0625 c 1.89148,-1.891484 1.9193,-4.674454 0.0625,-6.53125 L 106.375,8.6875 c -0.92287,-0.922862 -2.11654,-1.40625 -3.3125,-1.40625 z" transform="matrix(0.6002119,-0.5923903,0.6002119,0.5923903,-12.62122,62.755199)" id="C" fill="url(#9)"/>
  <path d="m 103.0625,8.40625 c -0.90713,0 -1.81638,0.3476298 -2.53125,1.0625 l -33.0625,33.0625 c -1.781264,1.762321 -4.718736,1.762321 -6.5,0 L 27.90625,9.46875 c -0.730696,-0.7306974 -1.574243,-1.03125 -2.5,-1.03125 -0.914277,0 -1.830256,0.3302559 -2.53125,1.03125 L 10.28125,22.0625 c -1.4376752,1.437675 -1.4376766,3.593573 0,5.03125 l 33.0625,33.0625 c 1.762321,1.781264 1.762321,4.718736 0,6.5 l -33.0625,33.0625 c -1.4376658,1.43767 -1.4376742,3.59357 0,5.03125 l 12.65625,12.65625 c 1.46029,1.46029 3.484181,1.45331 4.96875,-0.0312 l 33.0625,-33.0625 c 1.781264,-1.762321 4.718736,-1.762321 6.5,0 l 33.125,33.09375 c 1.4429,1.4429 3.53272,1.43603 5,-0.0312 L 118.1875,104.75 c 1.49667,-1.49667 1.51062,-3.52063 0.0625,-4.96875 l -33.125,-33.125 c -1.762321,-1.781264 -1.762321,-4.718736 0,-6.5 l 33.0625,-33.0625 c 1.49667,-1.496668 1.51061,-3.52064 0.0625,-4.96875 L 105.59375,9.46875 c -0.71489,-0.7148811 -1.62412,-1.0625 -2.53125,-1.0625 z" transform="matrix(0.6002119,-0.5923903,0.6002119,0.5923903,-12.62122,62.755199)" id="D" fill="none" stroke="url(#8)" stroke-width="3.609"/>
 </g>
</svg>
