<?xml version="1.0" encoding="UTF-8" standalone="no"?>
<!--part of the matt icon theme by sixsixfive released under CC0 (https://creativecommons.org/publicdomain/zero/1.0/) on openclipart-->
<svg xmlns="http://www.w3.org/2000/svg" xmlns:xlink="http://www.w3.org/1999/xlink" viewBox="0 0 128 128">
 <defs id="0">
  <linearGradient id="2">
   <stop id="B" stop-color="#eee"/>
   <stop id="C" offset="1" stop-color="#eee" stop-opacity="0"/>
  </linearGradient>
  <linearGradient id="3">
   <stop id="D" stop-color="#f08682"/>
   <stop id="E" offset="1" stop-color="#bf0303"/>
  </linearGradient>
  <radialGradient cx="60.05" cy="51.39" r="15.03" id="4" xlink:href="#5" gradientUnits="userSpaceOnUse" gradientTransform="matrix(-1.404511,1.1888571,-0.99999995,-1.1813958,199.73811,11.750541)"/>
  <linearGradient id="5">
   <stop id="F" stop-color="#eee"/>
   <stop id="G" offset="1" stop-color="#dcdcdc"/>
  </linearGradient>
  <radialGradient cx="63.996" cy="-24.902" r="59.12" id="6" xlink:href="#2" gradientUnits="userSpaceOnUse" gradientTransform="matrix(1.4440933,-0.00592121,0.00153598,0.3746017,-28.381846,49.110605)"/>
  <linearGradient y1="50.24" x2="0" y2="74.28" id="7" xlink:href="#3" gradientUnits="userSpaceOnUse"/>
 </defs>
 <g id="1">
  <path d="m 8.5359494,48.64167 c -5.0112608,0.812343 -5.4024925,6.191353 -5.1140704,10.239363 0.2053388,4.429796 -0.4844301,8.977573 0.5033038,13.307283 2.3329388,5.245814 8.5034612,3.577264 13.0520852,3.857495 102.808522,-0.25452 0.04011,0.130494 102.545762,-0.128216 4.99414,-0.845658 5.32683,-6.233308 5.0551,-10.26951 -0.2015,-4.429176 0.47508,-8.972121 -0.49314,-13.304873 -2.3096,-5.233557 -8.47443,-3.538365 -12.99976,-3.828655 -102.4715184,0.212196 -0.0223,-0.008 -102.5492806,0.127113 z" id="8" fill="#9c0f0f"/>
  <path d="m 8.8824101,50.407024 c -4.4841555,0.965853 -3.5646494,5.945597 -3.6285709,9.326049 0.1750271,3.912913 -0.3870022,7.918336 0.3550116,11.761604 1.9406005,4.038809 6.9257532,2.394619 10.5166272,2.738082 103.270962,-0.0241 0.376094,-0.170037 103.022912,-0.08985 4.49934,-0.943495 3.51014,-5.959642 3.59074,-9.328216 -0.17199,-3.924046 0.3602,-7.933871 -0.35587,-11.793062 -1.89667,-4.042641 -6.88767,-2.371748 -10.45332,-2.725135 C 9.1508636,50.65296 111.63672,50.26695 8.8824101,50.407024 z" id="9" fill="url(#7)"/>
  <path d="m 111.875,50.9375 c -25.623528,0.08887 -38.493657,0.138788 -44.9375,0.15625 -3.226402,0.0087 -4.86366,0.03316 -5.6875,0.03125 -0.41192,-9.55e-4 -0.627386,-0.02822 -0.75,-0.03125 -0.06131,-0.0015 -0.103936,0.0051 -0.15625,0 -0.01382,-0.0013 -0.03896,0.0053 -0.0625,0 -0.06557,-0.01471 -0.146646,-0.0585 -0.15625,-0.0625 -0.0108,-0.0045 0.08005,0.05094 0.125,0.0625 -0.09342,-0.0038 -0.311356,-0.02694 -0.71875,-0.03125 -0.814789,-0.0086 -2.432466,0.0048 -5.65625,0 -6.42518,-0.0095 -19.333307,-0.03468 -44.84375,0 -1.0006542,0.215533 -1.6452645,0.617928 -2.09375,1.15625 -0.4484855,0.538322 -0.719848,1.242577 -0.875,2.0625 -0.3085412,1.63053 -0.1258194,3.655425 -0.15625,5.40625 -1.739e-4,0.01 1.888e-4,0.02126 0,0.03125 0.1735969,3.966351 -0.3499464,7.926045 0.34375,11.59375 0.8614718,1.691541 2.2377373,2.128143 4.03125,2.25 1.813039,0.123184 3.932594,-0.171633 5.84375,0 0.03568,-8e-6 0.02687,8e-6 0.0625,0 25.746345,-0.006 38.685485,-0.01802 45.15625,-0.03125 3.23986,-0.0066 4.872639,-0.02456 5.6875,-0.03125 0.354287,-0.0029 0.517251,0.0026 0.625,0 0.05916,-0.02031 0.06855,0.0033 0.09375,0 0.01848,-0.0025 0.0506,-0.03006 0.0625,-0.03125 0.05627,-0.0056 0.100287,0.0013 0.15625,0 0.111926,-0.0026 0.317966,0.0017 0.71875,0 0.801568,-0.0035 2.392116,1.09e-4 5.59375,0 6.385432,-2.17e-4 19.231051,0.01133 44.75,0.03125 1.00273,-0.210267 1.61822,-0.617205 2.0625,-1.15625 0.44428,-0.539045 0.69384,-1.236073 0.84375,-2.0625 0.29644,-1.634286 0.12023,-3.692743 0.15625,-5.4375 4.1e-4,-0.01982 -4.7e-4,-0.04275 0,-0.0625 -0.16655,-3.95919 0.29533,-7.878727 -0.375,-11.5625 -0.84226,-1.692662 -2.22174,-2.153877 -4,-2.28125 -1.79742,-0.128745 -3.88212,0.17695 -5.78125,0 -0.0205,-0.0019 -0.042,0.002 -0.0625,0 z" id="A" fill="none" stroke="url(#6)" stroke-width="2"/>
 </g>
</svg>
